<mxfile host="app.diagrams.net" modified="2024-05-11T16:52:36.184Z" agent="Mozilla/5.0 (Macintosh; Intel Mac OS X 10_15_7) AppleWebKit/537.36 (KHTML, like Gecko) Chrome/124.0.0.0 Safari/537.36" version="24.4.0" etag="E4pvloU6SD4ct8bweRFW" type="device">
  <diagram name="ページ1" id="B2qhHMYb-tO9-_7keUux">
    <mxGraphModel dx="954" dy="511" grid="1" gridSize="10" guides="1" tooltips="1" connect="1" arrows="1" fold="1" page="1" pageScale="1" pageWidth="827" pageHeight="1169" math="1" shadow="0">
      <root>
        <mxCell id="0" />
        <mxCell id="1" parent="0" />
        <mxCell id="_dxr5dThFDfxwBGhigoL-6" value="" style="ellipse;whiteSpace=wrap;html=1;" parent="1" vertex="1">
          <mxGeometry x="260" y="115" width="80" height="170" as="geometry" />
        </mxCell>
        <mxCell id="_dxr5dThFDfxwBGhigoL-7" value="$$X(i-1)$$" style="text;html=1;align=center;verticalAlign=middle;resizable=0;points=[];autosize=1;strokeColor=none;fillColor=none;" parent="1" vertex="1">
          <mxGeometry x="260" y="300" width="80" height="30" as="geometry" />
        </mxCell>
        <mxCell id="_dxr5dThFDfxwBGhigoL-8" value="" style="ellipse;whiteSpace=wrap;html=1;movable=0;resizable=0;rotatable=0;deletable=0;editable=0;connectable=0;" parent="1" vertex="1">
          <mxGeometry x="550" y="39" width="140" height="322" as="geometry" />
        </mxCell>
        <mxCell id="_dxr5dThFDfxwBGhigoL-10" value="$$X(i+1)$$" style="text;html=1;align=center;verticalAlign=middle;resizable=0;points=[];autosize=1;strokeColor=none;fillColor=none;" parent="1" vertex="1">
          <mxGeometry x="580" y="370" width="80" height="30" as="geometry" />
        </mxCell>
        <mxCell id="_dxr5dThFDfxwBGhigoL-11" value="" style="ellipse;whiteSpace=wrap;html=1;" parent="1" vertex="1">
          <mxGeometry x="400" y="80" width="80" height="240" as="geometry" />
        </mxCell>
        <mxCell id="_dxr5dThFDfxwBGhigoL-12" value="$$X(i)$$" style="text;html=1;align=center;verticalAlign=middle;resizable=0;points=[];autosize=1;strokeColor=none;fillColor=none;" parent="1" vertex="1">
          <mxGeometry x="405" y="330" width="70" height="30" as="geometry" />
        </mxCell>
        <mxCell id="3" value="$$\sigma$$" style="text;html=1;align=center;verticalAlign=middle;resizable=0;points=[];autosize=1;strokeColor=none;fillColor=none;" parent="1" vertex="1">
          <mxGeometry x="245" y="180" width="90" height="30" as="geometry" />
        </mxCell>
        <mxCell id="5" value="" style="endArrow=none;html=1;" parent="1" edge="1">
          <mxGeometry width="50" height="50" relative="1" as="geometry">
            <mxPoint x="290" y="180" as="sourcePoint" />
            <mxPoint x="290" y="180" as="targetPoint" />
          </mxGeometry>
        </mxCell>
        <mxCell id="2" value="" style="shape=waypoint;sketch=0;size=6;pointerEvents=1;points=[];fillColor=#d5e8d4;resizable=0;rotatable=0;perimeter=centerPerimeter;snapToPoint=1;strokeColor=#82b366;strokeWidth=2;" parent="1" vertex="1">
          <mxGeometry x="280" y="170" width="20" height="20" as="geometry" />
        </mxCell>
        <mxCell id="11" value="$$\sigma \cup \{u\}$$" style="text;html=1;align=center;verticalAlign=middle;resizable=0;points=[];autosize=1;strokeColor=none;fillColor=none;" parent="1" vertex="1">
          <mxGeometry x="370" y="150" width="140" height="30" as="geometry" />
        </mxCell>
        <mxCell id="12" value="$$\sigma \cup \{u,v\}$$" style="text;html=1;align=center;verticalAlign=middle;resizable=0;points=[];autosize=1;strokeColor=none;fillColor=none;" parent="1" vertex="1">
          <mxGeometry x="560" y="170" width="150" height="30" as="geometry" />
        </mxCell>
        <mxCell id="13" value="$$\sigma \cup \{v\}$$" style="text;html=1;align=center;verticalAlign=middle;resizable=0;points=[];autosize=1;strokeColor=none;fillColor=none;" parent="1" vertex="1">
          <mxGeometry x="370" y="220" width="140" height="30" as="geometry" />
        </mxCell>
        <mxCell id="16" value="" style="endArrow=none;html=1;exitX=0.717;exitY=0.492;exitDx=0;exitDy=0;exitPerimeter=0;startArrow=open;startFill=0;fillColor=#f8cecc;strokeColor=#FA0A1A;" parent="1" source="15" target="14" edge="1">
          <mxGeometry width="50" height="50" relative="1" as="geometry">
            <mxPoint x="400" y="280" as="sourcePoint" />
            <mxPoint x="450" y="230" as="targetPoint" />
            <Array as="points">
              <mxPoint x="610" y="210" />
            </Array>
          </mxGeometry>
        </mxCell>
        <mxCell id="14" value="" style="shape=waypoint;sketch=0;size=6;pointerEvents=1;points=[];fillColor=#d5e8d4;resizable=0;rotatable=0;perimeter=centerPerimeter;snapToPoint=1;strokeWidth=2;strokeColor=#82b366;" parent="1" vertex="1">
          <mxGeometry x="414" y="170" width="20" height="20" as="geometry" />
        </mxCell>
        <mxCell id="15" value="" style="shape=waypoint;sketch=0;size=6;pointerEvents=1;points=[];fillColor=#d5e8d4;resizable=0;rotatable=0;perimeter=centerPerimeter;snapToPoint=1;strokeWidth=2;strokeColor=#82b366;" parent="1" vertex="1">
          <mxGeometry x="414" y="210" width="20" height="20" as="geometry" />
        </mxCell>
        <mxCell id="17" value="" style="shape=waypoint;sketch=0;size=6;pointerEvents=1;points=[];fillColor=#d5e8d4;resizable=0;rotatable=0;perimeter=centerPerimeter;snapToPoint=1;strokeWidth=2;strokeColor=#82b366;" parent="1" vertex="1">
          <mxGeometry x="600" y="200" width="20" height="20" as="geometry" />
        </mxCell>
        <mxCell id="19" value="" style="endArrow=none;html=1;exitX=0.411;exitY=0.553;exitDx=0;exitDy=0;exitPerimeter=0;startArrow=open;startFill=0;fillColor=#dae8fc;strokeColor=#0000FF;entryX=0.305;entryY=0.605;entryDx=0;entryDy=0;entryPerimeter=0;" parent="1" source="15" target="14" edge="1">
          <mxGeometry width="50" height="50" relative="1" as="geometry">
            <mxPoint x="434" y="230" as="sourcePoint" />
            <mxPoint x="434" y="190" as="targetPoint" />
            <Array as="points">
              <mxPoint x="290" y="180" />
            </Array>
          </mxGeometry>
        </mxCell>
        <mxCell id="20" value="$$P^{\triangle}_i$$" style="text;html=1;align=center;verticalAlign=middle;resizable=0;points=[];autosize=1;strokeColor=none;fillColor=none;fontColor=#FA0A1A;" parent="1" vertex="1">
          <mxGeometry x="439" y="190" width="120" height="30" as="geometry" />
        </mxCell>
        <mxCell id="GfkKlwBnRxyxXU5uYPCG-20" value="$$P^{\bigtriangledown}_i$$" style="text;html=1;align=center;verticalAlign=middle;resizable=0;points=[];autosize=1;strokeColor=none;fillColor=none;fontColor=#0000FF;" vertex="1" parent="1">
          <mxGeometry x="289" y="176" width="170" height="30" as="geometry" />
        </mxCell>
      </root>
    </mxGraphModel>
  </diagram>
</mxfile>
